<svg
  version="1.1"
  id="Layer_1"
  xmlns="http://www.w3.org/2000/svg"
  xmlns:xlink="http://www.w3.org/1999/xlink"
  x="0px"
  y="0px"
  width="90px"
  height="90px"
  viewBox="0 0 500 500"
  enable-background="new 0 0 500 500"
  xml:space="preserve"
>
  <g>
    <g>
      <path
        fill="#5D87A1"
        d="M103.349,309.587c-0.773-14.532-1.7-32.005-1.545-44.991h-0.465c-3.556,12.216-7.885,25.201-13.141,39.58
l-18.399,50.556H59.595l-16.853-49.628c-4.947-14.689-9.122-28.139-12.06-40.508h-0.309c-0.309,12.986-1.082,30.459-2.01,46.074
l-2.782,44.681H12.749l7.266-104.206h17.161l17.78,50.404c4.329,12.832,7.885,24.271,10.513,35.096h0.465
c2.627-10.515,6.338-21.957,10.977-35.096l18.553-50.404h17.161l6.495,104.206h-13.142L103.349,309.587z"
      />
      <path
        fill="#5D87A1"
        d="M145.396,280.52l16.388,44.22c1.7,4.947,3.557,10.822,4.794,15.306h0.309
c1.392-4.483,2.937-10.205,4.792-15.615l14.842-43.91H200.9l-20.408,53.342c-9.74,25.664-16.388,38.806-25.666,46.847
c-6.648,5.874-13.296,8.192-16.696,8.812l-3.402-11.441c3.402-1.083,7.885-3.247,11.905-6.647
c3.71-2.938,8.348-8.195,11.44-15.152c0.618-1.391,1.083-2.474,1.083-3.247s-0.31-1.854-0.928-3.555l-27.674-68.957H145.396z"
      />
      <path
        fill="#F88900"
        d="M211.876,338.962c6.031,3.71,14.842,6.804,24.117,6.804c13.762,0,21.8-7.268,21.8-17.779
c0-9.741-5.564-15.309-19.633-20.72c-17.009-6.028-27.521-14.843-27.521-29.528c0-16.235,13.452-28.294,33.705-28.294
c10.668,0,18.397,2.474,23.037,5.104l-3.71,10.976c-3.403-1.854-10.361-4.947-19.79-4.947c-14.226,0-19.636,8.504-19.636,15.615
c0,9.742,6.338,14.533,20.717,20.1c17.625,6.802,26.594,15.307,26.594,30.612c0,16.079-11.905,29.994-36.489,29.994
c-10.048,0-21.027-2.937-26.591-6.647L211.876,338.962z"
      />
      <path
        fill="#F88900"
        d="M375.913,370.657c-14.069-3.711-27.828-7.885-39.89-12.06c-2.164-0.773-4.328-1.547-6.338-1.547
c-24.737-0.927-45.918-19.17-45.918-52.721c0-33.396,20.407-54.886,48.545-54.886c28.294,0,46.69,21.954,46.69,52.722
c0,26.747-12.368,43.91-29.685,49.938v0.62c10.361,2.627,21.646,5.101,30.458,6.647L375.913,370.657z M364.781,302.783
c0-20.871-10.822-42.361-32.933-42.361c-22.727,0-33.858,21.027-33.705,43.601c-0.153,22.107,12.062,42.054,33.089,42.054
C352.722,346.076,364.781,326.593,364.781,302.783z"
      />
      <path
        fill="#F88900"
        d="M396.473,251.145h13.449v92.921h44.527v11.285h-57.977V251.145z"
      />
    </g>
    <g>
      <path
        fill="#F88900"
        d="M463.585,345.962h-3.378v-2.388h9.665v2.388h-3.433v10.188h-2.854V345.962z"
      />
      <path
        fill="#F88900"
        d="M481.953,351.336c-0.057-1.513-0.113-3.341-0.113-5.169h-0.058c-0.392,1.604-0.915,3.395-1.398,4.87
l-1.53,4.908h-2.221l-1.345-4.871c-0.409-1.473-0.839-3.264-1.137-4.907h-0.037c-0.077,1.697-0.131,3.64-0.225,5.206l-0.222,4.777
h-2.633l0.802-12.576h3.787l1.233,4.196c0.393,1.456,0.785,3.025,1.063,4.498h0.058c0.353-1.456,0.781-3.116,1.194-4.515
l1.342-4.18h3.713l0.688,12.576h-2.778L481.953,351.336z"
      />
    </g>
    <path
      fill="#54809C"
      d="M367.871,239.543c0,0-28.144-44.382-31.578-52.014c-4.18-9.29-15.792,26.935-9.753,28.792
c3.25,5.573-13.002-3.713-9.753-44.582c0.928-8.826,6.5-11.146,3.25-16.255c-7.43-1.393-14.396-30.651-19.969-39.008
c-4.123-6.184-16.961-22.818-9.289-20.898c9.289,2.32,6.039,1.856,16.256,6.5c14.373,6.534,23.705,8.046,27.398,7.433
c5.573-0.93,20.898,10.216,26.472,15.323c5.573,5.109,28.792,12.539,52.014,85.452c20.898,3.25,42.725,20.433,42.261,22.755
c-0.466,2.323-38.319-0.75-25.542,11.146c13.467,12.54,40.868,25.079,45.512,32.509c4.643,7.43-1.857-4.644-6.503-10.217
c-19.551-23.463-8.359-9.289-24.612-25.542c12.539-0.93,17.183-3.253,24.148-4.646c-18.939-15.451-11.609-16.719-44.584-32.972
c-5.573-6.966-38.03-87.476-78.946-99.848c-29.725-0.463-42.192-15.877-53.873-13.93c-5.57,0.927-13.003-2.323-6.5,13.002
c6.5,15.326,19.969,34.829,23.219,54.334c6.04,13.469-2.32,46.441,6.503,60.374s17.646,8.823,17.646-1.857
c0-10.683,1.393-16.719,6.502-7.896C343.26,216.322,367.871,239.543,367.871,239.543z"
    />
  </g>
</svg>
